<?xml version="1.0" encoding="UTF-8" standalone="no"?>
<svg width="24px" height="24px" viewBox="0 0 24 24" version="1.1" xmlns="http://www.w3.org/2000/svg" xmlns:xlink="http://www.w3.org/1999/xlink">
    <g id="lock-icon" stroke="none" stroke-width="1" fill="#808080" fill-rule="evenodd">
        <path d="M12,1 C15.3137085,1 18,3.6862915 18,7 L18,7 L18,8 L19,8 C20.1045695,8 21,8.8954305 21,10 L21,10 L21,20 C21,21.1045695 20.1045695,22 19,22 L19,22 L5,22 C3.8954305,22 3,21.1045695 3,20 L3,20 L3,10 C3,8.8954305 3.8954305,8 5,8 L5,8 L6,8 L6,7 C6,3.6862915 8.6862915,1 12,1 Z M19,10 L5,10 L5,20 L19,20 L19,10 Z M12,13 C13.1045695,13 14,13.8954305 14,15 C14,16.1045695 13.1045695,17 12,17 C10.8954305,17 10,16.1045695 10,15 C10,13.8954305 10.8954305,13 12,13 Z M12,3 C9.790861,3 8,4.790861 8,7 L8,7 L8,8 L16,8 L16,7 C16,4.790861 14.209139,3 12,3 Z" id="lock-shape"></path>
    </g>
</svg> 