<?xml version="1.0" encoding="UTF-8" standalone="no"?>
<svg width="24px" height="24px" viewBox="0 0 24 24" version="1.1" xmlns="http://www.w3.org/2000/svg" xmlns:xlink="http://www.w3.org/1999/xlink">
    <g id="moon" stroke="none" stroke-width="1" fill="#333333" fill-rule="evenodd">
        <path d="M9.36209591,3.23619177 C5.40849164,4.68811799 2.5,8.61956136 2.5,13.198389 C2.5,19.0091283 7.2157007,23.7248289 13.0264399,23.7248289 C17.6052676,23.7248289 21.5367109,20.8163373 22.9886371,16.8627331 C23.2279293,16.2370452 22.7474317,15.6389292 22.1217438,15.6389292 C21.9151172,15.6389292 21.7239129,15.723052 21.5992309,15.8477341 C19.8473257,17.6139816 17.3392934,18.7202195 14.5599068,18.7202195 C9.78972325,18.7202195 5.9295839,14.8600802 5.9295839,10.0898966 C5.9295839,7.22357205 7.17191958,4.6536353 9.14674662,2.87021566 C9.68453074,2.38188714 9.51183948,1.57769504 8.88615159,1.31840282 C8.71344982,1.25029143 8.52682982,1.25029143 8.35412805,1.31840282 C8.6885013,1.93024628 8.85027183,2.6437094 8.85027183,3.4116412 C8.85027183,5.81643234 6.9041788,7.76252536 4.49938766,7.76252536 C3.73145587,7.76252536 3.01799275,7.60075483 2.40614929,7.26638158 C2.3380379,7.4390833 2.3380379,7.62570336 2.40614929,7.79840512 C2.66544152,8.42409301 3.46963362,8.59678427 3.95796213,8.05900015 C5.74138177,6.08417311 8.31132045,4.84183743 11.1776442,4.84183743 C15.9478278,4.84183743 19.8079672,8.70197678 19.8079672,13.4721603 C19.8079672,16.2515469 18.7017292,18.7595792 16.9354818,20.5114844 C16.8107997,20.6361665 16.7266769,20.8273707 16.7266769,21.0339973 C16.7266769,21.6596852 17.3247929,22.1401828 17.9504808,21.9008906 C21.9040851,20.4489645 24.8125767,16.5175212 24.8125767,11.9386934 C24.8125767,6.12795414 20.096876,1.4122535 14.2861368,1.4122535 C12.5035471,1.4122535 10.8326642,2.05952312 9.36209591,3.23619177 Z" id="moon-icon" fill-rule="nonzero"></path>
    </g>
</svg> 