<?xml version="1.0" encoding="UTF-8" standalone="no"?>
<svg width="24px" height="24px" viewBox="0 0 24 24" version="1.1" xmlns="http://www.w3.org/2000/svg" xmlns:xlink="http://www.w3.org/1999/xlink">
    <g id="sun" stroke="none" stroke-width="1" fill="#ffffff" fill-rule="evenodd">
        <path d="M12,17 C14.7614237,17 17,14.7614237 17,12 C17,9.23857625 14.7614237,7 12,7 C9.23857625,7 7,9.23857625 7,12 C7,14.7614237 9.23857625,17 12,17 Z M12,19 C8.13400675,19 5,15.8659932 5,12 C5,8.13400675 8.13400675,5 12,5 C15.8659932,5 19,8.13400675 19,12 C19,15.8659932 15.8659932,19 12,19 Z" fill-rule="nonzero"></path>
        <path d="M12,3 C12.5522847,3 13,3.44771525 13,4 L13,4 L13,5 C13,5.55228475 12.5522847,6 12,6 C11.4477153,6 11,5.55228475 11,5 L11,5 L11,4 C11,3.44771525 11.4477153,3 12,3 Z" fill-rule="nonzero"></path>
        <path d="M12,18 C12.5522847,18 13,18.4477153 13,19 L13,19 L13,20 C13,20.5522847 12.5522847,21 12,21 C11.4477153,21 11,20.5522847 11,20 L11,20 L11,19 C11,18.4477153 11.4477153,18 12,18 Z" fill-rule="nonzero"></path>
        <path d="M21,11 C21.5522847,11 22,11.4477153 22,12 C22,12.5522847 21.5522847,13 21,13 L21,13 L20,13 C19.4477153,13 19,12.5522847 19,12 C19,11.4477153 19.4477153,11 20,11 L20,11 Z" fill-rule="nonzero"></path>
        <path d="M5,11 L4,11 C3.44771525,11 3,11.4477153 3,12 C3,12.5522847 3.44771525,13 4,13 L5,13 C5.55228475,13 6,12.5522847 6,12 C6,11.4477153 5.55228475,11 5,11 Z" fill-rule="nonzero"></path>
        <path d="M17.6568542,6.34314575 C18.0473785,6.73367004 18.0473785,7.36683502 17.6568542,7.75735931 L17.6568542,7.75735931 L16.9497475,8.46446609 C16.5592232,8.85499038 15.9260582,8.85499038 15.5355339,8.46446609 C15.1450096,8.0739418 15.1450096,7.44077682 15.5355339,7.05025253 L15.5355339,7.05025253 L16.2426407,6.34314575 C16.633165,5.95262146 17.26633,5.95262146 17.6568542,6.34314575 Z" fill-rule="nonzero"></path>
        <path d="M8.46446609,15.5355339 C8.85499038,15.9260582 8.85499038,16.5592232 8.46446609,16.9497475 L8.46446609,16.9497475 L7.75735931,17.6568542 C7.36683502,18.0473785 6.73367004,18.0473785 6.34314575,17.6568542 C5.95262146,17.26633 5.95262146,16.633165 6.34314575,16.2426407 L6.34314575,16.2426407 L7.05025253,15.5355339 C7.44077682,15.1450096 8.0739418,15.1450096 8.46446609,15.5355339 Z" fill-rule="nonzero"></path>
        <path d="M17.6568542,16.2426407 C18.0473785,16.633165 18.0473785,17.26633 17.6568542,17.6568542 C17.26633,18.0473785 16.633165,18.0473785 16.2426407,17.6568542 L16.2426407,17.6568542 L15.5355339,16.9497475 C15.1450096,16.5592232 15.1450096,15.9260582 15.5355339,15.5355339 C15.9260582,15.1450096 16.5592232,15.1450096 16.9497475,15.5355339 L16.9497475,15.5355339 Z" fill-rule="nonzero"></path>
        <path d="M8.46446609,7.05025253 C8.85499038,7.44077682 8.85499038,8.0739418 8.46446609,8.46446609 C8.0739418,8.85499038 7.44077682,8.85499038 7.05025253,8.46446609 L7.05025253,8.46446609 L6.34314575,7.75735931 C5.95262146,7.36683502 5.95262146,6.73367004 6.34314575,6.34314575 C6.73367004,5.95262146 7.36683502,5.95262146 7.75735931,6.34314575 L7.75735931,6.34314575 Z" fill-rule="nonzero"></path>
    </g>
</svg> 